<svg xmlns="http://www.w3.org/2000/svg" version="1.1" xmlns:xlink="http://www.w3.org/1999/xlink" xmlns:svgjs="http://svgjs.com/svgjs" width="1440" height="200" preserveAspectRatio="none" viewBox="0 0 1440 200">
    <g mask="url(&quot;#SvgjsMask1035&quot;)" fill="none">
        <rect width="1440" height="200" x="0" y="0" fill="rgba(196, 237, 204, 1)"></rect>
        <path d="M99.17297351758299 103.64234322858789L118.6536806323554 126.85854591889348 143.73763111042757 86.02938390158208z" fill="rgba(73, 205, 175, 0.4)" class="triangle-float1"></path>
        <path d="M966.2655296722932 83.5000929632893L1017.0751921980977 71.76975808425648 1005.3448573190649 20.96009555845189 954.5351947932603 32.69043043748472z" fill="rgba(73, 205, 175, 0.4)" class="triangle-float2"></path>
        <path d="M931.6621594444005 118.58614170691602L897.7486164950367 101.30632849169285 880.4688032798135 135.21987144105657 914.3823462291773 152.49968465627975z" fill="rgba(73, 205, 175, 0.4)" class="triangle-float3"></path>
        <path d="M1374.524394037941 186.8118785867482L1336.2976944491575 183.4307629455755 1349.9423276053865 214.07711078089852z" fill="rgba(73, 205, 175, 0.4)" class="triangle-float1"></path>
        <path d="M1274.478,80.497C1290.924,81.208,1305.654,70.521,1313.552,56.078C1321.139,42.204,1319.68,25.678,1312.02,11.844C1304.084,-2.49,1290.841,-15.313,1274.478,-14.492C1258.995,-13.715,1249.86,1.439,1242.941,15.311C1236.933,27.358,1234.989,40.816,1240.852,52.934C1247.617,66.917,1258.959,79.826,1274.478,80.497" fill="rgba(73, 205, 175, 0.4)" class="triangle-float1"></path>
        <path d="M899.1968652694045 57.19681282603124L926.3607135478998 70.44550686231202 932.6518304630733 23.075387426428833z" fill="rgba(73, 205, 175, 0.4)" class="triangle-float3"></path>
        <path d="M773.826897242895 33.863167617139474L770.3654394665575 66.79673844411771 803.2990102935357 70.25819622045525 806.7604680698732 37.324625393477014z" fill="rgba(73, 205, 175, 0.4)" class="triangle-float1"></path>
        <path d="M520.550443353301 71.74120003342816L515.2402145990155 41.62539624123753 472.7216232878724 64.64864126876111z" fill="rgba(73, 205, 175, 0.4)" class="triangle-float3"></path>
        <path d="M47.33326132112872 62.87855825184576L72.20204017132457 28.649620658240266 37.97310257771908 3.780841808044407 13.104323727523223 38.0097794016499z" fill="rgba(73, 205, 175, 0.4)" class="triangle-float2"></path>
        <path d="M334.47751828783254 7.577314315831627L294.8950414509136 35.23708230227796 332.8351609279278 53.741714985300156z" fill="rgba(73, 205, 175, 0.4)" class="triangle-float1"></path>
        <path d="M786.667,167.787C795.907,167.976,804.845,163.71,809.574,155.769C814.409,147.65,814.213,137.552,809.574,129.319C804.847,120.931,796.293,114.944,786.667,115.12C777.301,115.291,769.597,121.877,765.165,130.13C760.984,137.916,760.942,147.191,765.324,154.866C769.744,162.607,777.755,167.605,786.667,167.787" fill="rgba(73, 205, 175, 0.4)" class="triangle-float3"></path>
        <path d="M1088.7947542309375 81.51495844096696L1071.1352371471635 127.51957328367985 1117.1398519898764 145.1790903674538 1134.7993690736505 99.17447552474091z" fill="rgba(73, 205, 175, 0.4)" class="triangle-float1"></path>
        <path d="M60.482,77.64C72.514,77.415,86.419,77.553,92.495,67.166C98.604,56.723,92.156,44.367,86.059,33.917C80.03,23.583,72.435,12.808,60.482,12.301C47.864,11.766,37.418,20.789,30.851,31.576C23.958,42.899,19.157,57.253,26.328,68.402C33.166,79.033,47.844,77.876,60.482,77.64" fill="rgba(73, 205, 175, 0.4)" class="triangle-float3"></path>
        <path d="M376.3136830697405 190.35971339084273L421.5365116471873 211.44746467993693 442.6242629362815 166.22463610249008 397.40143435883465 145.13688481339588z" fill="rgba(73, 205, 175, 0.4)" class="triangle-float2"></path>
        <path d="M1451.41554157886 190.47037851813008L1462.3315572575495 164.7538571561202 1418.29876737519 161.23809431909086z" fill="rgba(73, 205, 175, 0.4)" class="triangle-float1"></path>
        <path d="M547.244,235.047C566.566,234.971,580.666,218.307,589.271,201.007C596.872,185.726,596.446,168.044,587.929,153.254C579.394,138.434,564.298,129.307,547.244,128.03C527.342,126.54,504.465,128.999,494.437,146.255C484.38,163.56,494.407,184.139,504.638,201.342C514.559,218.024,527.835,235.124,547.244,235.047" fill="rgba(73, 205, 175, 0.4)" class="triangle-float2"></path>
        <path d="M1136.919,215.255C1146.992,215.066,1153.464,205.428,1157.853,196.359C1161.603,188.61,1162.017,179.723,1157.724,172.261C1153.419,164.778,1145.552,159.935,1136.919,159.972C1128.347,160.009,1120.832,165.089,1116.419,172.438C1111.858,180.034,1110.755,189.179,1114.581,197.17C1119.015,206.431,1126.653,215.447,1136.919,215.255" fill="rgba(73, 205, 175, 0.4)" class="triangle-float3"></path>
        <path d="M669.3864901958026 59.840956180533L694.9349477926506 21.96381014174321 657.0578017538609-3.5846474551048715 631.5093441570128 34.29249858368492z" fill="rgba(73, 205, 175, 0.4)" class="triangle-float3"></path>
        <path d="M1224.41,91.466C1238.815,91.751,1250.477,81.069,1257.587,68.537C1264.59,56.193,1266.81,41.288,1259.918,28.882C1252.842,16.145,1238.977,9.141,1224.41,8.818C1209.215,8.481,1193.181,13.813,1186.064,27.243C1179.256,40.089,1185.982,54.783,1193.435,67.266C1200.634,79.323,1210.37,91.188,1224.41,91.466" fill="rgba(73, 205, 175, 0.4)" class="triangle-float3"></path>
        <path d="M250.757,128.078C259.637,127.301,265.312,119.518,269.567,111.685C273.571,104.314,275.923,95.949,272.329,88.37C268.185,79.631,260.425,71.75,250.757,72.013C241.369,72.268,235.874,81.388,231.125,89.49C226.295,97.73,220.895,107.052,225.226,115.565C229.832,124.619,240.638,128.964,250.757,128.078" fill="rgba(73, 205, 175, 0.4)" class="triangle-float3"></path>
    </g>
    <defs>
        <mask id="SvgjsMask1035">
            <rect width="1440" height="200" fill="#ffffff"></rect>
        </mask>
        <style>
            @keyframes float1 {
                0%{transform: translate(0, 0)}
                50%{transform: translate(-10px, 0)}
                100%{transform: translate(0, 0)}
            }

            .triangle-float1 {
                animation: float1 5s infinite;
            }

            @keyframes float2 {
                0%{transform: translate(0, 0)}
                50%{transform: translate(-5px, -5px)}
                100%{transform: translate(0, 0)}
            }

            .triangle-float2 {
                animation: float2 4s infinite;
            }

            @keyframes float3 {
                0%{transform: translate(0, 0)}
                50%{transform: translate(0, -10px)}
                100%{transform: translate(0, 0)}
            }

            .triangle-float3 {
                animation: float3 6s infinite;
            }
        </style>
    </defs>
</svg>